<svg width="483" height="483" viewBox="0 0 483 483" fill="none" xmlns="http://www.w3.org/2000/svg">
<path d="M1.90735e-05 241.5C1.90735e-05 374.877 108.123 483 241.5 483C374.877 483 483 374.877 483 241.5C483 178.483 458.864 121.104 419.331 78.1021C375.192 30.0893 311.86 0 241.5 0C171.19 0 107.897 30.0466 63.7625 78H63.8569C105.226 35.4561 163.253 9 227.5 9C353.145 9 455 110.184 455 235C455 359.816 353.145 461 227.5 461C103.875 461 3.28045 363.043 0.0786209 241H0.000526428L0.000339508 241.102C0.000125053 241.234 1.90735e-05 241.367 1.90735e-05 241.5Z" fill="black"/>
<path fill-rule="evenodd" clip-rule="evenodd" d="M0.0786209 241H0.000526428C0.0024262 240.063 0.0096661 239.126 0.0222206 238.191C0.0352844 239.129 0.0540956 240.065 0.0786209 241ZM63.7625 78C63.1926 78.6191 62.626 79.2413 62.0626 79.8663C62.6571 79.2409 63.2553 78.6187 63.8569 78H63.7625Z" fill="black"/>
</svg>
